<svg xmlns="http://www.w3.org/2000/svg" width="400" height="400" viewBox="0 0 400 400" fill="none">
  <defs>
    <linearGradient id="node" x1="0" y1="0" x2="1" y2="1"><stop stop-color="#c2a4ff"/><stop offset="1" stop-color="#503477"/></linearGradient>
    <radialGradient id="glow"><stop stop-color="#7547ae" stop-opacity=".3"/><stop offset="1" stop-color="#0b080c" stop-opacity="0"/></radialGradient>
  </defs>
  <circle cx="200" cy="200" r="195" fill="url(#glow)"/>
  <g stroke="#9a78ca" stroke-width="1.5" opacity=".75">
    <path d="M200 80 95 145 95 255 200 320 305 255 305 145Z"/>
    <path d="m200 80 105 175M95 145l105 175m105-175L95 255M200 80v240M95 145l210 110M305 145 95 255"/>
    <circle cx="200" cy="200" r="60" stroke-dasharray="3 7"/>
  </g>
  <g fill="url(#node)" stroke="#d5bfff">
    <path d="m200 165 32 18v36l-32 18-32-18v-36Z"/>
    <path d="m200 165 0 36m-32-18 32 18 32-18m-32 18v36"/>
    <rect x="171" y="60" width="58" height="36" rx="8"/>
    <rect x="66" y="127" width="58" height="36" rx="8"/>
    <rect x="276" y="127" width="58" height="36" rx="8"/>
    <rect x="66" y="237" width="58" height="36" rx="8"/>
    <rect x="276" y="237" width="58" height="36" rx="8"/>
    <rect x="171" y="304" width="58" height="36" rx="8"/>
  </g>
  <g fill="#8fdfb4"><circle cx="200" cy="78" r="4"/><circle cx="95" cy="145" r="4"/><circle cx="305" cy="145" r="4"/><circle cx="95" cy="255" r="4"/><circle cx="305" cy="255" r="4"/><circle cx="200" cy="322" r="4"/></g>
</svg>
